# xmcd
#
# Track frame offsets:
#	150
#	14553
#	39024
#	56026
#	71464
#	85065
#	105400
#	131188
#	150804
#	170329
#	187545
#
# Disc length: 2613 seconds
#
# Revision: 0
# Processed by: cddbd v1.5.2PL0 Copyright (c) Steve Scherf et al.
# Submitted via: EZCDAudioConverter 1.3.4.1
#
DISCID=770a330b
DTITLE=Eileen Ivers - An Nollaig: An Irish Christmas
DYEAR=2007
DGENRE=World
TTITLE0=Hark the Herald Angels Sing
TTITLE1=The Wexford Carol
TTITLE2=Christmas Eve-Oiche Nollag-High Road to Linton
TTITLE3=The Time Is Approaching
TTITLE4=Jesu, Joy of Man's Desiring
TTITLE5=Do You Hear What I Hear?
TTITLE6=Don Oiche Ud I Mbeithill
TTITLE7=The Holly Tree
TTITLE8=Apples in Winter-Frost Is All Over-A Merry Christmas
TTITLE9=Christmas Time Is Here
TTITLE10=O Holy Night
EXTD=
EXTT0=
EXTT1=
EXTT2=
EXTT3=
EXTT4=
EXTT5=
EXTT6=
EXTT7=
EXTT8=
EXTT9=
EXTT10=
PLAYORDER=
